<svg width="41" height="37" viewBox="0 0 41 37" fill="none" xmlns="http://www.w3.org/2000/svg">
<g filter="url(#filter0_d_218_580)">
<path fill-rule="evenodd" clip-rule="evenodd" d="M4.51465 8.25C4.51465 6.26088 5.30482 4.35322 6.71135 2.9467C8.11787 1.54018 10.0255 0.75 12.0146 0.75H29.5146C31.5038 0.75 33.4114 1.54018 34.818 2.9467C36.2245 4.35322 37.0146 6.26088 37.0146 8.25V25.75C37.0146 27.7391 36.2245 29.6468 34.818 31.0533C33.4114 32.4598 31.5038 33.25 29.5146 33.25H12.0146C10.0255 33.25 8.11787 32.4598 6.71135 31.0533C5.30482 29.6468 4.51465 27.7391 4.51465 25.75V8.25ZM22.6396 10.75C22.6396 10.2527 22.4421 9.77581 22.0905 9.42417C21.7388 9.07254 21.2619 8.875 20.7646 8.875C20.2674 8.875 19.7905 9.07254 19.4388 9.42417C19.0872 9.77581 18.8896 10.2527 18.8896 10.75V15.125H14.5146C14.0174 15.125 13.5405 15.3225 13.1888 15.6742C12.8372 16.0258 12.6396 16.5027 12.6396 17C12.6396 17.4973 12.8372 17.9742 13.1888 18.3258C13.5405 18.6775 14.0174 18.875 14.5146 18.875H18.8896V23.25C18.8896 23.7473 19.0872 24.2242 19.4388 24.5758C19.7905 24.9275 20.2674 25.125 20.7646 25.125C21.2619 25.125 21.7388 24.9275 22.0905 24.5758C22.4421 24.2242 22.6396 23.7473 22.6396 23.25V18.875H27.0146C27.5119 18.875 27.9888 18.6775 28.3405 18.3258C28.6921 17.9742 28.8896 17.4973 28.8896 17C28.8896 16.5027 28.6921 16.0258 28.3405 15.6742C27.9888 15.3225 27.5119 15.125 27.0146 15.125H22.6396V10.75Z" fill="black"/>
</g>
<defs>
<filter id="filter0_d_218_580" x="0.514648" y="0.75" width="40.5" height="40.5" filterUnits="userSpaceOnUse" color-interpolation-filters="sRGB">
<feFlood flood-opacity="0" result="BackgroundImageFix"/>
<feColorMatrix in="SourceAlpha" type="matrix" values="0 0 0 0 0 0 0 0 0 0 0 0 0 0 0 0 0 0 127 0" result="hardAlpha"/>
<feOffset dy="4"/>
<feGaussianBlur stdDeviation="2"/>
<feComposite in2="hardAlpha" operator="out"/>
<feColorMatrix type="matrix" values="0 0 0 0 0 0 0 0 0 0 0 0 0 0 0 0 0 0 0.25 0"/>
<feBlend mode="normal" in2="BackgroundImageFix" result="effect1_dropShadow_218_580"/>
<feBlend mode="normal" in="SourceGraphic" in2="effect1_dropShadow_218_580" result="shape"/>
</filter>
</defs>
</svg>
