<svg width="35" height="34" viewBox="0 0 35 34" fill="none" xmlns="http://www.w3.org/2000/svg">
<path d="M33 30.0952V13.9048C33 13.6091 32.93 13.3174 32.7955 13.0529C32.6609 12.7884 32.4656 12.5584 32.225 12.381L18.6625 2.38095C18.3271 2.13367 17.9192 2 17.5 2C17.0808 2 16.6729 2.13367 16.3375 2.38095L2.775 12.381C2.53437 12.5584 2.33906 12.7884 2.20455 13.0529C2.07003 13.3174 2 13.6091 2 13.9048V30.0952C2 30.6004 2.20413 31.0849 2.56748 31.4421C2.93083 31.7993 3.42364 32 3.9375 32H31.0625C31.5764 32 32.0692 31.7993 32.4325 31.4421C32.7959 31.0849 33 30.6004 33 30.0952Z" fill="black" stroke="black" stroke-width="4" stroke-linecap="round" stroke-linejoin="round"/>
</svg>
