<svg width="32" height="25" viewBox="0 0 32 25" fill="none" xmlns="http://www.w3.org/2000/svg">
<path fill-rule="evenodd" clip-rule="evenodd" d="M31.1017 1.98779C31.1017 2.81622 30.4301 3.48779 29.6017 3.48779H1.5C0.671573 3.48779 0 2.81622 0 1.98779C0 1.15937 0.671572 0.487793 1.5 0.487793H29.6017C30.4301 0.487793 31.1017 1.15937 31.1017 1.98779ZM31.1017 12.2486C31.1017 13.077 30.4301 13.7486 29.6017 13.7486H1.5C0.671573 13.7486 0 13.077 0 12.2486C0 11.4201 0.671572 10.7486 1.5 10.7486H29.6017C30.4301 10.7486 31.1017 11.4201 31.1017 12.2486ZM0 22.8128C0 23.6412 0.671572 24.3128 1.5 24.3128H29.6017C30.4301 24.3128 31.1017 23.6412 31.1017 22.8128C31.1017 21.9844 30.4301 21.3128 29.6017 21.3128H1.5C0.671573 21.3128 0 21.9844 0 22.8128Z" fill="black"/>
</svg>
