<svg width="34" height="34" viewBox="0 0 34 34" fill="none" xmlns="http://www.w3.org/2000/svg">
<path fill-rule="evenodd" clip-rule="evenodd" d="M8.01465 4.5H25.5146C26.5092 4.5 27.463 4.89509 28.1663 5.59835C28.8696 6.30161 29.2646 7.25544 29.2646 8.25V25.75C29.2646 26.7446 28.8696 27.6984 28.1663 28.4017C27.463 29.1049 26.5092 29.5 25.5146 29.5H8.01465C7.02009 29.5 6.06626 29.1049 5.363 28.4017C4.65974 27.6984 4.26465 26.7446 4.26465 25.75V8.25C4.26465 7.25544 4.65974 6.30161 5.363 5.59835C6.06626 4.89509 7.02009 4.5 8.01465 4.5ZM0.514648 8.25C0.514648 6.26088 1.30482 4.35322 2.71135 2.9467C4.11787 1.54018 6.02552 0.75 8.01465 0.75H25.5146C27.5038 0.75 29.4114 1.54018 30.818 2.9467C32.2245 4.35322 33.0146 6.26088 33.0146 8.25V25.75C33.0146 27.7391 32.2245 29.6468 30.818 31.0533C29.4114 32.4598 27.5038 33.25 25.5146 33.25H8.01465C6.02552 33.25 4.11787 32.4598 2.71135 31.0533C1.30482 29.6468 0.514648 27.7391 0.514648 25.75V8.25ZM18.6396 10.75C18.6396 10.2527 18.4421 9.77581 18.0905 9.42417C17.7388 9.07254 17.2619 8.875 16.7646 8.875C16.2674 8.875 15.7905 9.07254 15.4388 9.42417C15.0872 9.77581 14.8896 10.2527 14.8896 10.75V15.125H10.5146C10.0174 15.125 9.54045 15.3225 9.18882 15.6742C8.83719 16.0258 8.63965 16.5027 8.63965 17C8.63965 17.4973 8.83719 17.9742 9.18882 18.3258C9.54045 18.6775 10.0174 18.875 10.5146 18.875H14.8896V23.25C14.8896 23.7473 15.0872 24.2242 15.4388 24.5758C15.7905 24.9275 16.2674 25.125 16.7646 25.125C17.2619 25.125 17.7388 24.9275 18.0905 24.5758C18.4421 24.2242 18.6396 23.7473 18.6396 23.25V18.875H23.0146C23.5119 18.875 23.9888 18.6775 24.3405 18.3258C24.6921 17.9742 24.8896 17.4973 24.8896 17C24.8896 16.5027 24.6921 16.0258 24.3405 15.6742C23.9888 15.3225 23.5119 15.125 23.0146 15.125H18.6396V10.75Z" fill="black"/>
</svg>
