<?xml version="1.0" standalone="no"?>
<!DOCTYPE svg PUBLIC "-//W3C//DTD SVG 20010904//EN"
 "http://www.w3.org/TR/2001/REC-SVG-20010904/DTD/svg10.dtd">
<svg version="1.0" xmlns="http://www.w3.org/2000/svg"
 width="106.000000pt" height="106.000000pt" viewBox="0 0 106.000000 106.000000"
 preserveAspectRatio="xMidYMid meet">

<g transform="translate(0.000000,106.000000) scale(0.100000,-0.100000)"
fill="#000000" stroke="none">
<path d="M180 1025 c-59 -19 -113 -65 -139 -118 -20 -41 -21 -59 -21 -366 0
-366 3 -384 65 -447 70 -70 95 -74 444 -74 286 0 309 2 351 21 55 25 95 62
123 114 21 39 22 51 22 365 0 367 -2 377 -70 446 -70 69 -99 74 -439 73 -219
0 -302 -4 -336 -14z m384 -267 c11 -15 16 -46 16 -95 l0 -73 73 0 c84 0 117
-16 117 -57 0 -49 -24 -63 -112 -63 l-78 0 0 -77 c0 -65 -3 -80 -22 -100 -25
-27 -45 -29 -76 -7 -20 14 -22 24 -22 100 l0 84 -84 0 c-76 0 -86 2 -100 22
-22 31 -20 45 9 73 21 22 33 25 100 25 l75 0 0 77 c0 57 4 81 17 95 23 25 68
23 87 -4z"/>
</g>
</svg>
