<svg width="34" height="31" viewBox="0 0 34 31" fill="none" xmlns="http://www.w3.org/2000/svg">
<path d="M33.9306 19.4367C34.1168 17.5321 33.893 15.5925 33.6758 13.7163C33.6071 13.12 33.5362 12.504 33.4808 11.9143C33.1795 8.15743 30.6957 4.42678 26.9932 2.1814C23.6962 0.17847 19.7854 -0.474612 15.9766 0.344471C15.2897 0.495182 14.7845 0.807526 14.3369 1.08492C13.9913 1.29898 13.6678 1.49992 13.2756 1.62224C12.5621 1.84721 11.8265 2.0285 11.113 2.20543C9.77253 2.53743 8.38549 2.88035 7.06048 3.52251L7.01838 3.54435C5.53384 4.38746 4.38831 5.38128 3.17409 6.43408C2.84616 6.71803 2.5138 7.00634 2.16815 7.29684C0.785534 8.47414 0.820986 10.0599 0.858653 11.591C0.878595 12.4647 0.900752 13.369 0.650374 14.1684L0.641512 14.1968C0.581687 14.4327 0.481979 14.6686 0.375624 14.9198C0.158483 15.4353 -0.0896788 16.0206 0.0321863 16.6715C0.419939 19.4804 1.71171 22.2981 3.58178 24.4058C5.84183 26.9548 8.81534 28.3964 12.1744 28.5777C12.8989 28.6214 13.6279 28.9818 14.399 29.3618C14.5541 29.4383 14.7114 29.5147 14.8665 29.589L14.9042 29.6065C15.3163 29.7768 15.6619 29.9101 15.9788 30.0258C17.7159 30.6811 19.2536 31 20.7227 31C21.1614 31 21.5934 30.9716 22.0233 30.9148C23.1445 30.7663 24.2856 30.6746 25.3912 30.5872C27.1793 30.4452 28.8655 30.3098 30.4785 29.9494C34.2342 29.056 34.0791 25.4106 33.9395 22.1932C33.8974 21.195 33.8553 20.2493 33.9306 19.4389V19.4367ZM10.2068 5.89457C11.246 5.68707 12.3428 5.56476 13.4041 5.44463C15.8458 5.1716 18.3673 4.89202 20.4656 3.54872C20.6407 3.49412 20.849 3.4548 21.086 3.43296C23.3439 3.39583 25.4953 4.21054 27.1128 5.72857C28.9608 7.46066 29.8847 9.92228 29.5235 12.1567C29.0272 15.5445 29.8049 18.5172 30.6314 20.9832C31.1898 22.5973 31.5554 24.906 30.7511 26.103C30.5162 26.4503 30.1993 26.6665 29.7717 26.7604C28.573 27.0422 27.3699 27.1645 26.0936 27.2956C24.3919 27.4703 22.6326 27.6516 20.7914 28.2282C19.0675 28.7088 17.3481 28.0164 15.7484 27.1929C14.8488 26.684 14.0001 26.1991 13.1715 25.7251C11.1352 24.5609 9.21195 23.4601 7.00287 22.2784C5.23915 21.3042 2.36313 19.2751 2.93701 16.6453L2.94144 16.6213C3.36686 14.0767 3.90971 11.3923 5.43192 9.00054C6.2185 7.80358 7.88473 6.35763 10.2046 5.89239L10.2068 5.89457Z" fill="black"/>
</svg>
