<?xml version="1.0" standalone="no"?>
<!DOCTYPE svg PUBLIC "-//W3C//DTD SVG 20010904//EN"
 "http://www.w3.org/TR/2001/REC-SVG-20010904/DTD/svg10.dtd">
<svg version="1.0" xmlns="http://www.w3.org/2000/svg"
 width="106.000000pt" height="97.000000pt" viewBox="0 0 106.000000 97.000000"
 preserveAspectRatio="xMidYMid meet">

<g transform="translate(0.000000,97.000000) scale(0.100000,-0.100000)"
fill="#000000" stroke="none">
<path d="M505 961 c-17 -4 -42 -15 -55 -23 -14 -9 -68 -28 -120 -43 -100 -28
-159 -61 -244 -137 l-49 -44 -7 -95 c-4 -53 -13 -106 -20 -118 -31 -58 33
-225 120 -312 58 -58 128 -93 217 -109 34 -6 87 -22 116 -35 102 -45 155 -50
331 -32 169 17 201 28 240 80 20 27 21 40 20 245 0 309 -21 387 -131 496 -105
106 -282 159 -418 127z m261 -120 c58 -26 109 -74 133 -126 17 -37 21 -64 21
-158 0 -84 5 -133 21 -188 38 -137 37 -208 -1 -229 -11 -6 -69 -17 -129 -25
-60 -8 -130 -20 -156 -26 -64 -16 -100 -4 -275 93 -186 103 -240 140 -268 181
-27 41 -28 72 -3 169 34 132 76 194 158 237 12 6 81 20 153 31 72 11 150 29
173 39 54 25 121 26 173 2z"/>
<path d="M495 706 c-16 -8 -52 -21 -80 -30 -27 -9 -66 -31 -86 -49 -29 -27
-37 -43 -44 -87 -11 -77 -9 -113 8 -147 25 -47 78 -93 122 -104 22 -7 67 -20
99 -31 52 -17 69 -18 145 -9 110 14 124 26 129 118 9 168 -29 273 -116 321
-53 30 -136 38 -177 18z"/>
</g>
</svg>
