<?xml version="1.0" encoding="UTF-8"?>
<!DOCTYPE svg PUBLIC "-//W3C//DTD SVG 1.1//EN" "http://www.w3.org/Graphics/SVG/1.1/DTD/svg11.dtd">
<svg xmlns="http://www.w3.org/2000/svg" version="1.1" width="54px" height="50px" style="shape-rendering:geometricPrecision; text-rendering:geometricPrecision; image-rendering:optimizeQuality; fill-rule:evenodd; clip-rule:evenodd" xmlns:xlink="http://www.w3.org/1999/xlink">
<g><path style="opacity:1" fill="#f6f6f6" d="M -0.5,-0.5 C 17.5,-0.5 35.5,-0.5 53.5,-0.5C 53.5,16.1667 53.5,32.8333 53.5,49.5C 35.5,49.5 17.5,49.5 -0.5,49.5C -0.5,32.8333 -0.5,16.1667 -0.5,-0.5 Z"/></g>
<g><path style="opacity:1" fill="#060606" d="M 24.5,0.5 C 45.1747,0.683554 54.5081,11.1836 52.5,32C 52.3333,35.1667 52.1667,38.3333 52,41.5C 51.2155,43.286 50.0488,44.786 48.5,46C 41.8888,47.4937 35.2222,48.1604 28.5,48C 22.5448,45.7891 16.5448,43.7891 10.5,42C -2.19821,30.5537 -2.53154,18.887 9.5,7C 13.3214,5.1676 17.3214,3.83426 21.5,3C 22.5707,2.14825 23.5707,1.31491 24.5,0.5 Z"/></g>
</svg>
